<svg width="62" height="12" viewBox="0 0 62 12" fill="none" xmlns="http://www.w3.org/2000/svg">
<path d="M60.2238 10.8451C60.3603 11.0851 60.6656 11.169 60.9056 11.0325C61.1457 10.896 61.2296 10.5907 61.093 10.3507L60.6584 10.5979L60.2238 10.8451ZM2.08121 0.0257804C1.81924 -0.0615435 1.53608 0.0800365 1.44875 0.342008L0.0257291 4.61108C-0.0615948 4.87305 0.0799852 5.15621 0.341957 5.24354C0.603929 5.33086 0.887089 5.18928 0.974412 4.92731L2.23932 1.13258L6.03406 2.39749C6.29603 2.48481 6.57919 2.34323 6.66651 2.08126C6.75384 1.81929 6.61226 1.53613 6.35028 1.44881L2.08121 0.0257804ZM60.6584 10.5979L61.093 10.3507C59.7382 7.96878 57.9602 6.4101 55.8598 5.47578C53.7688 4.54566 51.3877 4.24708 48.8375 4.33141C43.76 4.49933 37.8549 6.19834 31.991 7.65125C26.0831 9.11505 20.2005 10.3354 15.0235 9.65252C9.89725 8.97633 5.44813 6.43216 2.37031 0.276515L1.9231 0.500122L1.47588 0.723729C4.70916 7.19029 9.45322 9.92642 14.8928 10.6439C20.2816 11.3548 26.3375 10.0822 32.2315 8.6219C38.1693 7.15067 43.9292 5.49428 48.8706 5.33087C51.3298 5.24953 53.5466 5.5413 55.4533 6.38946C57.3506 7.23342 58.9701 8.64094 60.2238 10.8451L60.6584 10.5979Z" fill="#7D298A"/>
</svg>
