<svg width="54" height="52" viewBox="0 0 54 52" fill="none" xmlns="http://www.w3.org/2000/svg">
<path d="M43.5954 0.0824799C43.3648 -0.0694506 43.0547 -0.00568444 42.9028 0.224906C42.7509 0.455496 42.8146 0.76559 43.0452 0.91752L43.5954 0.0824799ZM3.61663 51.8758C3.82767 52.0539 4.14312 52.0272 4.32122 51.8162L7.22344 48.3771C7.40153 48.1661 7.37483 47.8506 7.16379 47.6725C6.95275 47.4944 6.6373 47.5211 6.4592 47.7322L3.87945 50.7891L0.822513 48.2094C0.611475 48.0313 0.296021 48.058 0.117927 48.269C-0.0601683 48.4801 -0.0334628 48.7955 0.177575 48.9736L3.61663 51.8758ZM43.0452 0.91752C47.5306 3.87285 50.1713 6.34651 51.4286 8.45557C52.0524 9.50199 52.3249 10.4408 52.3292 11.2945C52.3335 12.1451 52.0718 12.9503 51.5631 13.7334C50.5303 15.323 48.5017 16.7883 45.7449 18.2331C43.0022 19.6705 39.6155 21.0499 35.9419 22.5026C28.622 25.397 20.1743 28.5747 13.7364 33.0329C7.28353 37.5015 2.74629 43.3312 3.44088 51.5359L4.43732 51.4515C3.78552 43.7523 7.99967 38.222 14.3057 33.855C20.6268 29.4777 28.9456 26.3443 36.3096 23.4325C39.9778 21.982 43.4124 20.5845 46.2091 19.1188C48.9915 17.6606 51.2202 16.0966 52.4016 14.2782C53 13.3572 53.3346 12.3638 53.3292 11.2895C53.3238 10.2183 52.9806 9.10599 52.2876 7.94352C50.9113 5.63481 48.1139 3.05958 43.5954 0.0824799L43.0452 0.91752Z" fill="#7D298A"/>
</svg>
