<svg width="37" height="44" viewBox="0 0 37 44" fill="none" xmlns="http://www.w3.org/2000/svg">
<path d="M35.3107 43.3817C35.3849 43.6477 35.6607 43.8032 35.9267 43.7289C36.1926 43.6547 36.3481 43.3789 36.2738 43.1129L35.3107 43.3817ZM0.618333 27.4275L0.127779 27.5242L0.618333 27.4275ZM17.2138 0.0107267C16.9435 -0.0458446 16.6785 0.127405 16.622 0.39769L15.7001 4.80225C15.6435 5.07253 15.8168 5.3375 16.087 5.39408C16.3573 5.45065 16.6223 5.2774 16.6789 5.00711L17.4983 1.09195L21.4135 1.9114C21.6838 1.96797 21.9487 1.79472 22.0053 1.52444C22.0619 1.25415 21.8886 0.989182 21.6184 0.932611L17.2138 0.0107267ZM36.2738 43.1129C35.2249 39.3543 32.2871 35.7297 28.5833 32.6069C24.8697 29.4759 20.3343 26.8055 16.0023 24.9687C11.6851 23.1381 7.50571 22.108 4.51618 22.3243C3.02173 22.4324 1.74251 22.8584 0.921204 23.7427C0.0810674 24.6473 -0.186981 25.9279 0.127779 27.5242L1.10889 27.3308C0.834609 25.9398 1.09774 25.0221 1.65394 24.4232C2.22897 23.804 3.21122 23.4213 4.58833 23.3217C7.34191 23.1225 11.3459 24.0805 15.6119 25.8893C19.8629 27.6918 24.3103 30.3122 27.9387 33.3714C31.5768 36.4388 34.34 39.9036 35.3107 43.3817L36.2738 43.1129ZM0.127779 27.5242C0.374507 28.7755 1.08395 29.6015 2.12402 29.9723C3.12473 30.3291 4.36493 30.2413 5.67481 29.8534C8.30336 29.0748 11.4562 27.0163 14.1667 24.1534C19.5858 18.4297 23.4318 9.25294 17.5298 0.226497L16.6929 0.773747C22.2351 9.2501 18.6975 17.9134 13.4405 23.4658C10.813 26.241 7.80465 28.1796 5.39081 28.8945C4.17949 29.2533 3.17819 29.2865 2.45983 29.0304C1.78082 28.7883 1.29363 28.2677 1.10889 27.3308L0.127779 27.5242Z" fill="#7D298A"/>
</svg>
